<svg width="2213" height="932" viewBox="0 0 2213 932" fill="none" xmlns="http://www.w3.org/2000/svg">
<path d="M1038.52 187.027C1039.13 174.813 1046.78 164.066 1058.12 159.498L1142.34 125.589C1154.17 120.828 1167.48 121.488 1178.78 127.395L1259.23 169.461C1270.07 175.127 1276.62 186.578 1276.02 198.793C1274.87 222.006 1249.74 235.94 1229.44 224.623L1176.48 195.096C1164.63 188.489 1150.38 187.783 1137.94 193.186L1082.32 217.334C1061 226.59 1037.37 210.241 1038.52 187.027Z" fill="#0460D9"/>
<path d="M232.477 269.624C290.268 181.362 382.646 94.5 421.611 62.102C435.183 52.0324 470.208 28.2155 501.73 13.5051C541.133 -4.88291 572.558 -2.30689 594.984 8.25139C619.091 19.6011 641.457 69.8684 643.581 105.445C645.373 135.458 640.166 172.167 631.76 213.146C621.252 264.37 591.044 349.743 543.76 471.892C505.933 569.611 542.884 542.379 566.088 516.549C608.556 458.758 735.109 221.185 807.61 137.126C898.237 32.0514 958.751 166.548 902.423 312.18C882.853 362.777 813.469 422.078 813.469 618.854C813.469 726.441 832.131 773.124 854.894 809.602C866.344 832.22 898.599 880.889 874.566 904.696C844.496 934.485 823.47 931.094 765.73 921.085C697.288 909.221 671.163 876.428 652.775 823.891C634.387 771.354 660.655 667.593 681.67 563.832C698.482 480.823 674.665 508.23 660.655 532.31C647.083 555.951 606.805 626.614 554.267 720.13C488.596 837.025 438.686 810.757 421.611 805.503C404.536 800.249 378.268 788.429 370.387 746.399C362.507 704.369 369.074 641.324 378.268 584.847C387.462 528.369 408.477 435.116 421.611 376.012C432.118 328.728 414.627 319.887 408.477 323.475C403.223 326.539 328.958 395.385 296.686 471.892C257.283 565.304 252.986 635.056 242.479 750.638C231.971 866.219 224.382 877.722 205.478 895.277C178.358 920.462 157.041 929.124 93.1041 929.124C15.0917 929.124 -0.000296401 895.277 4.36492e-09 855.413C0.000345152 808.995 6.56716 703.056 44.6566 603.235C82.7461 503.414 160.239 379.952 232.477 269.624Z" fill="#0460D9"/>
<path d="M1460.64 225.812C1438.26 278.049 1414.45 461.904 1405.35 547.302C1405.16 560.695 1374.62 806.079 1388.29 874.075C1405.38 959.071 1486.9 913.146 1508 884.934C1541.31 840.392 1536.9 644.477 1537.52 618.982C1538.14 593.488 1576.22 587.075 1590.62 623.514C1603.69 656.566 1663.37 754.413 1712.82 819.107C1791.92 922.599 2019.52 982.684 2045.76 874.075C2060.13 814.567 1941.6 849.009 1875.85 802.933C1800.2 749.915 1759.16 664.837 1712.82 588.87C1681.36 537.315 1644.44 509.57 1653.13 508.405C1665.02 505.31 1698.8 486.93 1712.82 477.304C1749.42 452.167 1747 451.919 1778.85 421.971C1810.7 392.023 1940.93 244.992 1952.35 220.166C1963.78 195.339 1952.97 158.606 1944.93 144.066C1936.89 129.526 1913.02 110.116 1875.85 110.116C1844.95 110.116 1834.07 136.91 1821.71 149.538C1817.94 155.581 1752.56 251.29 1700.87 319.222C1675.26 352.881 1633.62 380.762 1595.31 411.907C1564.67 436.823 1569.92 416.614 1576.37 403.396C1582.84 383.05 1606.39 310.204 1648.8 181.586C1701.82 20.8134 1554.46 87.8488 1523.37 110.315C1503.43 124.721 1488.61 160.517 1460.64 225.812Z" fill="#0460D9"/>
<path d="M2014.62 239.346C1992.45 291.67 1944.03 469.321 1926.05 553.3C1924.46 566.6 1904.82 654.67 1911.31 723.722C1919.43 810.038 1995.75 799.183 2017.54 791.111C2061.12 774.965 2079.01 723.722 2079.01 643.78C2079.01 572.47 2110.8 452.047 2119.36 432.488C2127.92 412.93 2156.23 340.825 2206.38 215.019C2246.78 113.658 2083.23 127.832 2061.3 141.913C2031.24 161.204 2040.38 178.55 2014.62 239.346Z" fill="#0460D9"/>
<path fill-rule="evenodd" clip-rule="evenodd" d="M1082 594.964C1085.33 568.323 1107.19 548.814 1132.02 550.298C1156.86 551.782 1176.22 573.753 1176.38 600.602L1176.81 689.534C1176.9 706.283 1163.81 719.721 1148.32 718.796L1095.78 715.658C1080.29 714.732 1068.9 699.83 1070.97 683.21L1082 594.964ZM1129.62 612.127C1127.4 611.995 1125.5 613.683 1125.37 615.898L1121.86 674.568L1122.07 674.581C1120.64 679.961 1118.7 681.903 1117.32 682.574C1115.84 683.296 1113.78 683.151 1111.02 681.824C1108.33 680.529 1105.68 678.424 1103.62 676.528C1102.6 675.599 1101.78 674.758 1101.21 674.153C1100.92 673.852 1100.7 673.61 1100.56 673.449C1100.49 673.369 1100.43 673.309 1100.4 673.271C1100.38 673.252 1100.37 673.237 1100.36 673.23C1100.36 673.227 1100.36 673.225 1100.36 673.224L1100.24 673.087C1098.93 671.708 1096.75 671.582 1095.29 672.831C1093.78 674.122 1093.61 676.392 1094.9 677.9L1097.63 675.563C1095.07 677.754 1094.91 677.892 1094.9 677.902L1094.91 677.911C1094.91 677.916 1094.92 677.924 1094.93 677.932C1094.94 677.949 1094.96 677.974 1094.99 678.002C1095.04 678.061 1095.11 678.142 1095.2 678.244C1095.38 678.448 1095.65 678.737 1095.98 679.089C1096.64 679.791 1097.59 680.756 1098.75 681.821C1101.03 683.916 1104.29 686.561 1107.9 688.301C1111.45 690.008 1116.07 691.182 1120.47 689.036C1122.33 688.13 1123.92 686.74 1125.27 684.888C1126.38 686.885 1127.8 688.454 1129.54 689.574C1133.65 692.23 1138.38 691.614 1142.11 690.341C1145.9 689.044 1149.45 686.806 1151.96 684.997C1153.24 684.077 1154.3 683.233 1155.04 682.614C1155.41 682.305 1155.71 682.05 1155.91 681.869C1156.01 681.779 1156.1 681.706 1156.15 681.655C1156.18 681.629 1156.21 681.607 1156.22 681.591C1156.23 681.584 1156.24 681.577 1156.24 681.573L1156.25 681.564C1156.25 681.555 1156.11 681.407 1153.82 678.917L1156.26 681.563C1157.72 680.219 1157.81 677.945 1156.47 676.484C1155.12 675.023 1152.85 674.928 1151.39 676.27C1151.39 676.271 1151.39 676.273 1151.38 676.276C1151.37 676.283 1151.36 676.295 1151.34 676.311C1151.3 676.345 1151.25 676.399 1151.17 676.47C1151 676.612 1150.76 676.826 1150.44 677.091C1149.8 677.623 1148.88 678.36 1147.76 679.162C1145.49 680.8 1142.6 682.573 1139.78 683.538C1136.88 684.528 1134.82 684.426 1133.44 683.534C1132.15 682.704 1130.45 680.544 1129.67 675.035L1129.88 675.048L1133.39 616.377C1133.52 614.162 1131.83 612.26 1129.62 612.127ZM1166.43 581.937C1165.2 580.385 1162.93 580.131 1161.38 581.368L1152.67 588.31C1151.12 589.548 1150.87 591.811 1152.1 593.363C1153.34 594.915 1155.6 595.171 1157.16 593.933L1165.86 586.99C1167.42 585.752 1167.67 583.489 1166.43 581.937ZM1097.19 578.488C1095.37 577.699 1093.26 578.537 1092.47 580.358C1091.68 582.18 1092.52 584.298 1094.34 585.086L1103.23 588.934C1105.05 589.723 1107.17 588.884 1107.96 587.063C1108.74 585.241 1107.91 583.125 1106.09 582.336L1097.19 578.488Z" fill="#0460D9"/>
<path fill-rule="evenodd" clip-rule="evenodd" d="M903.423 560.339C914 391.108 1024.04 260.261 1149.2 268.083C1274.36 275.906 1367.24 419.437 1356.67 588.667C1348.03 717.438 1264.74 889.222 1112.36 881.008L1110.89 880.921C957.782 871.352 895.96 689.553 903.423 560.339ZM1035.55 379.179C1009.06 377.597 1011.11 434.139 1031.86 440.835C1028.21 447.329 1025.15 454.227 1022.76 461.455C1027.34 457.61 1032.55 454.453 1038.09 453.076C1044.52 451.475 1051.28 452.319 1057.66 457.011C1063.92 461.614 1069.59 469.756 1074.44 482.311C1074.95 483.652 1074.39 485.168 1073.12 485.839C1071.84 486.509 1070.27 486.122 1069.46 484.938C1064.29 477.416 1055.29 468.498 1045.13 465.491C1040.14 464.014 1034.9 463.966 1029.6 466.167C1026.33 467.522 1022.95 469.769 1019.53 473.199C1018.79 476.582 1018.18 480.025 1017.73 483.519C1017.73 483.519 991.491 600.604 995.463 654.654C999.435 708.704 1030.14 761.969 1086.92 765.362L1151.27 769.206C1208.06 772.599 1255.85 727.121 1255.27 670.177L1255.24 670.149C1254.57 602.757 1254.19 564.972 1253.51 497.581C1253.48 494.455 1253.32 491.358 1253.05 488.294C1249.79 483.826 1246.38 480.824 1242.99 478.914C1237.98 476.096 1232.78 475.52 1227.65 476.393C1217.21 478.169 1207.21 485.952 1201.18 492.805C1200.23 493.883 1198.62 494.081 1197.44 493.264C1196.26 492.447 1195.87 490.874 1196.55 489.604C1202.86 477.716 1209.46 470.307 1216.22 466.482C1223.11 462.583 1229.92 462.55 1236.12 464.905C1241.89 467.099 1247.03 471.322 1251.34 476.146C1249.84 468.42 1247.59 460.952 1244.68 453.822C1245.25 453.775 1245.8 453.726 1246.37 453.625C1267.78 449.476 1276.54 393.552 1250.06 391.969C1226.33 390.552 1215.75 406.851 1213.81 410.292C1194.6 393.16 1169.73 382.203 1142.19 380.557C1115.25 378.947 1089.79 386.519 1068.9 400.631C1066.44 395.49 1057.46 380.489 1035.55 379.179Z" fill="#0460D9"/>
</svg>
